<svg width="38" height="38" viewBox="0 0 38 38" fill="none" xmlns="http://www.w3.org/2000/svg">
<path d="M17.2583 3.325C9.97501 4.11667 4.11668 9.975 3.32501 17.1C2.53335 24.5417 6.80835 31.1917 13.3 33.725C13.775 33.8833 14.25 33.5667 14.25 32.9333V30.4C14.25 30.4 13.6167 30.5583 12.825 30.5583C10.6083 30.5583 9.65835 28.6583 9.50001 27.55C9.34168 26.9167 9.02501 26.4417 8.55001 25.9667C8.07501 25.8083 7.91668 25.8083 7.91668 25.65C7.91668 25.3333 8.39168 25.3333 8.55001 25.3333C9.50001 25.3333 10.2917 26.4417 10.6083 26.9167C11.4 28.1833 12.35 28.5 12.825 28.5C13.4583 28.5 13.9333 28.3417 14.25 28.1833C14.4083 27.075 14.8833 25.9667 15.8333 25.3333C12.1917 24.5417 9.50001 22.4833 9.50001 19C9.50001 17.2583 10.2917 15.5167 11.4 14.25C11.2417 13.9333 11.0833 13.1417 11.0833 12.0333C11.0833 11.4 11.0833 10.6083 11.4 9.975C11.4 9.65833 11.7167 9.5 11.875 9.5H12.0333C12.825 9.65833 14.4083 10.1333 15.8333 11.5583C16.7833 11.2417 17.8917 11.0833 19 11.0833C20.1083 11.0833 21.2167 11.2417 22.1667 11.5583C23.5917 10.1333 25.3333 9.65833 26.125 9.5H26.2833C26.6 9.5 26.7583 9.65833 26.9167 9.975C26.9167 10.6083 26.9167 11.4 26.9167 12.0333C26.9167 13.3 26.7583 13.9333 26.6 14.25C27.7083 15.5167 28.5 17.1 28.5 19C28.5 22.4833 25.8083 24.5417 22.1667 25.3333C23.1167 26.125 23.75 27.55 23.75 28.975V33.0917C23.75 33.5667 24.225 34.0417 24.8583 33.8833C30.7167 31.5083 34.8333 25.8083 34.8333 19.1583C34.8333 9.65833 26.7583 2.21667 17.2583 3.325Z" fill="white"/>
</svg>
