<svg width="37" height="38" viewBox="0 0 37 38" fill="none" xmlns="http://www.w3.org/2000/svg">
<path d="M29.2917 4.75H7.70833C6.00479 4.75 4.625 6.16708 4.625 7.91667V30.0833C4.625 31.8329 6.00479 33.25 7.70833 33.25H29.2917C30.9952 33.25 32.375 31.8329 32.375 30.0833V7.91667C32.375 6.16708 30.9952 4.75 29.2917 4.75ZM11.9294 26.9167C10.8549 26.9167 9.98383 26.0221 9.98383 24.9185V17.8299C9.98537 16.7279 10.8564 15.8333 11.9294 15.8333C13.004 15.8333 13.875 16.7279 13.875 17.8315V24.9201C13.875 26.0221 13.004 26.9167 11.9294 26.9167ZM11.8616 13.8019C10.673 13.8019 9.879 12.9881 9.879 11.9019C9.879 10.8158 10.6714 10.0019 11.9926 10.0019C13.1812 10.0019 13.9752 10.8158 13.9752 11.9019C13.9752 12.9881 13.1828 13.8019 11.8616 13.8019ZM25.8676 26.9167C24.8285 26.9167 23.9852 26.0506 23.9852 24.9834V20.8588C23.9852 19.1837 22.9816 19 22.6055 19C22.2293 19 20.9744 19.0554 20.9744 20.8588V24.9834C20.9744 26.0506 20.1311 26.9167 19.092 26.9167H18.9671C17.928 26.9167 17.0847 26.0506 17.0847 24.9834V17.8315C17.0847 16.7279 17.9558 15.8333 19.0303 15.8333C20.1049 15.8333 20.9759 16.7279 20.9759 17.8315C20.9759 17.8315 21.4107 15.8333 24.3645 15.8333C26.2438 15.8333 27.75 17.3802 27.75 20.8588V24.9834C27.75 26.0506 26.9067 26.9167 25.8676 26.9167Z" fill="white"/>
</svg>
