<svg width="38" height="38" viewBox="0 0 38 38" fill="none" xmlns="http://www.w3.org/2000/svg">
<g clip-path="url(#clip0_8_233)">
<path d="M11.0833 9.5C9.62785 9.5 8.18662 9.78668 6.84193 10.3437C5.49723 10.9007 4.27542 11.7171 3.24623 12.7462C2.21705 13.7754 1.40066 14.9972 0.843668 16.3419C0.286679 17.6866 0 19.1278 0 20.5833C0 22.0388 0.286679 23.48 0.843668 24.8247C1.40066 26.1694 2.21705 27.3912 3.24623 28.4204C4.27542 29.4496 5.49723 30.266 6.84193 30.823C8.18662 31.38 9.62785 31.6667 11.0833 31.6667C12.5388 31.6667 13.9801 31.38 15.3247 30.823C16.6694 30.266 17.8913 29.4496 18.9204 28.4204C19.9496 27.3912 20.766 26.1694 21.323 24.8247C21.88 23.48 22.1667 22.0388 22.1667 20.5833C22.1667 19.1278 21.88 17.6866 21.323 16.3419C20.766 14.9972 19.9496 13.7754 18.9204 12.7462C17.8913 11.7171 16.6694 10.9007 15.3247 10.3437C13.9801 9.78668 12.5388 9.5 11.0833 9.5ZM28.5 10.2917C27.2402 10.2917 26.032 11.376 25.1412 13.306C24.2504 15.2361 23.75 17.8538 23.75 20.5833C23.75 23.3129 24.2504 25.9306 25.1412 27.8606C26.032 29.7907 27.2402 30.875 28.5 30.875C29.7598 30.875 30.968 29.7907 31.8588 27.8606C32.7496 25.9306 33.25 23.3129 33.25 20.5833C33.25 17.8538 32.7496 15.2361 31.8588 13.306C30.968 11.376 29.7598 10.2917 28.5 10.2917ZM36.4167 12.6667C35.9967 12.6667 35.594 13.5007 35.2971 14.9854C35.0001 16.4701 34.8333 18.4837 34.8333 20.5833C34.8333 22.683 35.0001 24.6966 35.2971 26.1813C35.594 27.6659 35.9967 28.5 36.4167 28.5C36.8366 28.5 37.2393 27.6659 37.5363 26.1813C37.8332 24.6966 38 22.683 38 20.5833C38 18.4837 37.8332 16.4701 37.5363 14.9854C37.2393 13.5007 36.8366 12.6667 36.4167 12.6667Z" fill="white"/>
</g>
<defs>
<clipPath id="clip0_8_233">
<rect width="38" height="38" fill="white"/>
</clipPath>
</defs>
</svg>
